<?xml version="1.0" encoding="utf-8"?>
<svg style="color: #449ed1" viewBox="11.353 12.5 76.22 120.075" xmlns="http://www.w3.org/2000/svg" >
  <circle r="1.5" fill="currentColor" cx="2.753" cy="14"/>
  <circle r="1.5" fill="currentColor" cx="3" cy="25"/>
  <circle r="1.5" fill="currentColor" cx="14" cy="14"/>
  <circle r="1.5" fill="currentColor" cx="14" cy="25"/>
  <circle r="1.5" fill="currentColor" cx="25" cy="14"/>
  <circle r="1.5" fill="currentColor" cx="25" cy="25"/>
  <circle r="1.5" fill="currentColor" cx="36" cy="14"/>
  <circle r="1.5" fill="currentColor" cx="36" cy="25"/>
  <circle r="1.5" fill="currentColor" cx="49" cy="14"/>
  <circle r="1.5" fill="currentColor" cx="49" cy="25"/>
  <circle r="1.5" fill="currentColor" cx="62" cy="14"/>
  <circle r="1.5" fill="currentColor" cx="62" cy="25"/>
  <circle r="1.5" fill="currentColor" cx="75" cy="14"/>
  <circle r="1.5" fill="currentColor" cx="75" cy="25"/>
  <circle r="1.5" fill="currentColor" cx="2.46" cy="35.083"/>
  <circle r="1.5" fill="currentColor" cx="2.707" cy="46.083"/>
  <circle r="1.5" fill="currentColor" cx="13.707" cy="35.083"/>
  <circle r="1.5" fill="currentColor" cx="13.707" cy="46.083"/>
  <circle r="1.5" fill="currentColor" cx="24.707" cy="35.083"/>
  <circle r="1.5" fill="currentColor" cx="24.707" cy="46.083"/>
  <circle r="1.5" fill="currentColor" cx="35.707" cy="35.083"/>
  <circle r="1.5" fill="currentColor" cx="35.707" cy="46.083"/>
  <circle r="1.5" fill="currentColor" cx="48.707" cy="35.083"/>
  <circle r="1.5" fill="currentColor" cx="48.707" cy="46.083"/>
  <circle r="1.5" fill="currentColor" cx="61.707" cy="35.083"/>
  <circle r="1.5" fill="currentColor" cx="61.707" cy="46.083"/>
  <circle r="1.5" fill="currentColor" cx="74.707" cy="35.083"/>
  <circle r="1.5" fill="currentColor" cx="74.707" cy="46.083"/>
  <circle r="1.5" fill="currentColor" cx="2.826" cy="56.487"/>
  <circle r="1.5" fill="currentColor" cx="3.073" cy="67.487"/>
  <circle r="1.5" fill="currentColor" cx="14.073" cy="56.487"/>
  <circle r="1.5" fill="currentColor" cx="14.073" cy="67.487"/>
  <circle r="1.5" fill="currentColor" cx="25.073" cy="56.487"/>
  <circle r="1.5" fill="currentColor" cx="25.073" cy="67.487"/>
  <circle r="1.5" fill="currentColor" cx="36.073" cy="56.487"/>
  <circle r="1.5" fill="currentColor" cx="36.073" cy="67.487"/>
  <circle r="1.5" fill="currentColor" cx="49.073" cy="56.487"/>
  <circle r="1.5" fill="currentColor" cx="49.073" cy="67.487"/>
  <circle r="1.5" fill="currentColor" cx="62.073" cy="56.487"/>
  <circle r="1.5" fill="currentColor" cx="62.073" cy="67.487"/>
  <circle r="1.5" fill="currentColor" cx="75.073" cy="56.487"/>
  <circle r="1.5" fill="currentColor" cx="75.073" cy="67.487"/>
  <circle r="1.5" fill="currentColor" cx="2.533" cy="77.57"/>
  <circle r="1.5" fill="currentColor" cx="2.78" cy="88.57"/>
  <circle r="1.5" fill="currentColor" cx="13.78" cy="77.57"/>
  <circle r="1.5" fill="currentColor" cx="13.78" cy="88.57"/>
  <circle r="1.5" fill="currentColor" cx="24.78" cy="77.57"/>
  <circle r="1.5" fill="currentColor" cx="24.78" cy="88.57"/>
  <circle r="1.5" fill="currentColor" cx="35.78" cy="77.57"/>
  <circle r="1.5" fill="currentColor" cx="35.78" cy="88.57"/>
  <circle r="1.5" fill="currentColor" cx="48.78" cy="77.57"/>
  <circle r="1.5" fill="currentColor" cx="48.78" cy="88.57"/>
  <circle r="1.5" fill="currentColor" cx="61.78" cy="77.57"/>
  <circle r="1.5" fill="currentColor" cx="61.78" cy="88.57"/>
  <circle r="1.5" fill="currentColor" cx="74.78" cy="77.57"/>
  <circle r="1.5" fill="currentColor" cx="74.78" cy="88.57"/>
  <circle r="1.5" fill="currentColor" cx="2.146" cy="98.992"/>
  <circle r="1.5" fill="currentColor" cx="2.393" cy="109.992"/>
  <circle r="1.5" fill="currentColor" cx="13.393" cy="98.992"/>
  <circle r="1.5" fill="currentColor" cx="13.393" cy="109.992"/>
  <circle r="1.5" fill="currentColor" cx="24.393" cy="98.992"/>
  <circle r="1.5" fill="currentColor" cx="24.393" cy="109.992"/>
  <circle r="1.5" fill="currentColor" cx="35.393" cy="98.992"/>
  <circle r="1.5" fill="currentColor" cx="35.393" cy="109.992"/>
  <circle r="1.5" fill="currentColor" cx="48.393" cy="98.992"/>
  <circle r="1.5" fill="currentColor" cx="48.393" cy="109.992"/>
  <circle r="1.5" fill="currentColor" cx="61.393" cy="98.992"/>
  <circle r="1.5" fill="currentColor" cx="61.393" cy="109.992"/>
  <circle r="1.5" fill="currentColor" cx="74.393" cy="98.992"/>
  <circle r="1.5" fill="currentColor" cx="74.393" cy="109.992"/>
  <circle r="1.5" fill="currentColor" cx="1.853" cy="120.075"/>
  <circle r="1.5" fill="currentColor" cx="2.1" cy="131.075"/>
  <circle r="1.5" fill="currentColor" cx="13.1" cy="120.075"/>
  <circle r="1.5" fill="currentColor" cx="13.1" cy="131.075"/>
  <circle r="1.5" fill="currentColor" cx="24.1" cy="120.075"/>
  <circle r="1.5" fill="currentColor" cx="24.1" cy="131.075"/>
  <circle r="1.5" fill="currentColor" cx="35.1" cy="120.075"/>
  <circle r="1.5" fill="currentColor" cx="35.1" cy="131.075"/>
  <circle r="1.5" fill="currentColor" cx="48.1" cy="120.075"/>
  <circle r="1.5" fill="currentColor" cx="48.1" cy="131.075"/>
  <circle r="1.5" fill="currentColor" cx="61.1" cy="120.075"/>
  <circle r="1.5" fill="currentColor" cx="61.1" cy="131.075"/>
  <circle r="1.5" fill="currentColor" cx="74.1" cy="120.075"/>
  <circle r="1.5" fill="currentColor" cx="74.1" cy="131.075"/>
</svg>