<svg width="786" height="849" viewBox="0 0 786 849" fill="none" xmlns="http://www.w3.org/2000/svg">
<g style="mix-blend-mode:multiply" filter="url(#filter0_b_1_11)">
<path d="M260.498 576.704L320.687 592.534C354.104 601.323 389.709 593.279 416.101 570.976L421.406 566.493C440.294 550.531 464.923 543.052 489.498 545.818L534.198 554.93C546.483 557.434 558.374 561.588 569.547 567.278L625.844 595.946C652.892 609.72 685.916 602.269 704.429 578.214C719.597 558.506 721.765 531.724 709.964 509.833L696.292 484.471C692.772 477.941 688.585 471.792 683.799 466.124L604.863 372.649L575.441 330.364C560.441 308.806 541.249 290.494 519.011 276.522L453.15 235.143C422.015 215.581 385.991 205.204 349.22 205.204L312.998 205.204L215.096 214.745C201.732 216.048 188.539 218.724 175.725 222.732L100.822 246.161C72.6488 254.973 47.8926 272.287 29.95 295.727C10.8483 320.682 0.497519 351.233 0.497518 382.659L0.497518 388.111C0.497516 419.472 9.76547 450.134 27.1371 476.245L43.5734 500.95C67.5754 537.027 108.034 558.704 151.366 558.704C159.269 558.704 167.157 559.428 174.928 560.866L260.498 576.704Z" fill="#449ED1" fill-opacity="0.2"/>
</g>
<defs>
<filter id="filter0_b_1_11" x="-3.50247" y="201.204" width="725.019" height="405.613" filterUnits="userSpaceOnUse" color-interpolation-filters="sRGB">
<feFlood flood-opacity="0" result="BackgroundImageFix"/>
<feGaussianBlur in="BackgroundImage" stdDeviation="2"/>
<feComposite in2="SourceAlpha" operator="in" result="effect1_backgroundBlur_1_11"/>
<feBlend mode="normal" in="SourceGraphic" in2="effect1_backgroundBlur_1_11" result="shape"/>
</filter>
</defs>
</svg>
