<svg width="782" height="850" viewBox="0 0 782 850" fill="none" xmlns="http://www.w3.org/2000/svg">
<g style="mix-blend-mode:multiply" filter="url(#filter0_b_1_9)">
<path d="M295.537 372.695L376 325.5L443 274L518.469 197.366C525.265 190.465 531.539 183.068 537.238 175.236L588.702 104.514C601.693 80.0787 637.597 82.9795 646.497 109.184L650 119.5L685.13 202.884L736.215 358.791C740.724 372.554 743.69 386.776 745.055 401.195L750.094 454.374C751.361 467.756 751.245 481.232 749.745 494.59L745.046 536.462C743.685 548.585 741.192 560.555 737.598 572.213L713.82 649.363C710.612 659.77 706.54 669.89 701.647 679.617L701.158 680.59C679.789 723.066 643.663 756.291 599.551 774.037L529.09 802.383C505.912 811.708 481.16 816.5 456.177 816.5L295.376 816.5C269.387 816.5 243.659 811.315 219.699 801.247L172.978 781.616C156.998 774.902 141.983 766.091 128.329 755.415L96.6163 730.622C77.5933 715.75 61.4923 697.48 49.1295 676.738L35.5126 653.892C23.852 634.328 17.6961 611.976 17.6961 589.201C17.6961 566.606 23.7554 544.424 35.2426 524.966L49.19 501.341C68.9206 467.92 98.4302 441.357 133.735 425.239C143.827 420.631 154.304 416.918 165.045 414.142L245.581 393.328C263.109 388.798 279.921 381.854 295.537 372.695Z" fill="#449ED1" fill-opacity="0.2"/>
</g>
<defs>
<filter id="filter0_b_1_9" x="13.6961" y="83.7532" width="741.268" height="736.747" filterUnits="userSpaceOnUse" color-interpolation-filters="sRGB">
<feFlood flood-opacity="0" result="BackgroundImageFix"/>
<feGaussianBlur in="BackgroundImage" stdDeviation="2"/>
<feComposite in2="SourceAlpha" operator="in" result="effect1_backgroundBlur_1_9"/>
<feBlend mode="normal" in="SourceGraphic" in2="effect1_backgroundBlur_1_9" result="shape"/>
</filter>
</defs>
</svg>
